<?xml version="1.0" standalone="no"?>
<!DOCTYPE svg PUBLIC "-//W3C//DTD SVG 20010904//EN"
 "http://www.w3.org/TR/2001/REC-SVG-20010904/DTD/svg10.dtd">
<svg version="1.0" xmlns="http://www.w3.org/2000/svg"
 width="512.000000pt" height="512.000000pt" viewBox="0 0 512.000000 512.000000"
 preserveAspectRatio="xMidYMid meet">
<metadata>
Created by potrace 1.14, written by Peter Selinger 2001-2017
</metadata>
<g transform="translate(0.000000,512.000000) scale(0.100000,-0.100000)"
fill="#000000" stroke="none">
<path d="M2350 5110 c-621 -56 -1188 -324 -1616 -762 -198 -202 -344 -408
-469 -663 -176 -357 -259 -716 -259 -1125 0 -409 83 -768 259 -1125 125 -255
271 -461 469 -663 398 -407 910 -664 1491 -748 165 -24 505 -24 670 0 581 84
1093 341 1491 748 198 202 344 408 469 663 176 357 259 716 259 1125 0 409
-83 768 -259 1125 -125 255 -271 461 -469 663 -391 401 -902 660 -1460 743
-151 22 -438 32 -576 19z m-415 -712 c72 -25 150 -55 174 -67 53 -28 248 -159
308 -208 72 -60 212 -291 224 -373 18 -113 31 -178 45 -220 33 -99 30 -281
-11 -535 -8 -49 -17 -115 -21 -145 -7 -65 -76 -224 -132 -308 -22 -31 -53 -84
-70 -117 -22 -45 -62 -91 -158 -185 -171 -166 -196 -185 -358 -276 -163 -90
-154 -88 -522 -100 -220 -7 -222 -7 -233 14 -18 33 -18 432 -2 1282 6 308 6
625 1 840 -12 446 -13 416 7 435 15 16 45 17 317 12 l301 -4 130 -45z m1800
-353 c50 -2 107 -4 127 -4 36 -1 37 -2 42 -43 3 -24 7 -86 10 -139 4 -97 4
-97 -22 -109 -18 -9 -84 -14 -197 -15 -93 -1 -202 -6 -242 -10 -40 -4 -90 -4
-111 0 l-40 6 -7 141 c-6 115 -4 143 7 154 18 18 176 34 273 27 39 -2 111 -6
160 -8z m185 -575 c0 -21 7 -90 16 -152 22 -147 26 -865 6 -998 -7 -47 -17
-146 -21 -220 -6 -97 -16 -162 -36 -230 -52 -183 -118 -368 -162 -455 -16 -33
-47 -102 -68 -153 -21 -51 -54 -112 -74 -135 -20 -23 -50 -60 -66 -82 -76
-103 -175 -186 -295 -247 -19 -10 -49 -27 -65 -38 -40 -25 -348 -85 -440 -85
-39 0 -88 6 -110 13 -22 7 -80 16 -130 22 -177 18 -315 60 -360 109 -17 19
-15 23 44 101 34 45 61 85 61 90 0 5 14 25 31 44 l31 36 41 -21 c22 -12 70
-32 106 -46 62 -23 68 -24 180 -13 155 14 273 38 316 64 62 38 204 185 239
250 44 79 103 245 128 360 20 89 42 445 41 656 -1 342 -17 1009 -25 1025 -5
11 -15 31 -23 45 -13 23 -12 27 10 50 25 25 25 25 248 26 122 1 238 7 257 12
19 6 54 10 78 11 l42 1 0 -40z"/>
<path d="M1500 4079 c-2 -370 -3 -1014 -2 -1373 l2 -449 61 7 c90 9 188 47
282 109 114 76 143 124 233 391 53 156 61 219 69 526 8 284 -2 406 -40 482
-39 78 -168 233 -217 262 -70 41 -220 86 -308 93 l-80 6 0 -54z"/>
</g>
</svg>
